HIERARCHY
ROOT Hips
{
  OFFSET 0.000000 0.000000 0.000000
  CHANNELS 6 Xposition Yposition Zposition Zrotation Xrotation Yrotation
  JOINT Spine
  {
    OFFSET 0.000000 0.201924 0.000000
    CHANNELS 3 Zrotation Xrotation Yrotation
    JOINT Chest
    {
      OFFSET 0.000000 0.302887 0.000000
      CHANNELS 3 Zrotation Xrotation Yrotation
      JOINT Neck
      {
        OFFSET 0.000000 0.082757 0.000000
        CHANNELS 3 Zrotation Xrotation Yrotation
        JOINT Head
        {
          OFFSET 0.000000 0.082757 0.000000
          CHANNELS 3 Zrotation Xrotation Yrotation
          JOINT HeadTip
          {
            OFFSET 0.000000 0.057930 0.000000
            CHANNELS 3 Zrotation Xrotation Yrotation
            End Site
            {
              OFFSET 0 0.02 0
            }
          }
        }
      }
      JOINT LeftArm
      {
        OFFSET 0.127688 0.000000 0.000000
        CHANNELS 3 Zrotation Xrotation Yrotation
        JOINT LeftForeArm
        {
          OFFSET 0.234259 0.000000 0.000000
          CHANNELS 3 Zrotation Xrotation Yrotation
          JOINT LeftHand
          {
            OFFSET 0.234985 0.000000 0.000000
            CHANNELS 3 Zrotation Xrotation Yrotation
            JOINT LeftFinger
            {
              OFFSET 0.047728 0.000000 0.000000
              CHANNELS 3 Zrotation Xrotation Yrotation
              End Site
              {
                OFFSET 0 0.02 0
              }
            }
          }
        }
      }
      JOINT RightArm
      {
        OFFSET -0.127688 0.000000 0.000000
        CHANNELS 3 Zrotation Xrotation Yrotation
        JOINT RightForeArm
        {
          OFFSET -0.292811 0.000000 0.000000
          CHANNELS 3 Zrotation Xrotation Yrotation
          JOINT RightHand
          {
            OFFSET -0.213811 0.000000 0.000000
            CHANNELS 3 Zrotation Xrotation Yrotation
            JOINT RightFinger
            {
              OFFSET -0.093548 0.000000 0.000000
              CHANNELS 3 Zrotation Xrotation Yrotation
              End Site
              {
                OFFSET 0 0.02 0
              }
            }
          }
        }
      }
    }
  }
  JOINT LeftUpLeg
  {
    OFFSET 0.113381 -0.017007 0.000000
    CHANNELS 3 Zrotation Xrotation Yrotation
    JOINT LeftLeg
    {
      OFFSET 0.000000 -0.382927 0.000000
      CHANNELS 3 Zrotation Xrotation Yrotation
      JOINT LeftFoot
      {
        OFFSET 0.000000 -0.379044 0.000000
        CHANNELS 3 Zrotation Xrotation Yrotation
        JOINT LeftToe
        {
          OFFSET 0.000000 0.000000 0.106774
          CHANNELS 3 Zrotation Xrotation Yrotation
          End Site
          {
            OFFSET 0 0.02 0
          }
        }
      }
    }
  }
  JOINT RightUpLeg
  {
    OFFSET -0.113381 -0.017007 0.000000
    CHANNELS 3 Zrotation Xrotation Yrotation
    JOINT RightLeg
    {
      OFFSET 0.000000 -0.334607 0.000000
      CHANNELS 3 Zrotation Xrotation Yrotation
      JOINT RightFoot
      {
        OFFSET 0.000000 -0.431842 0.000000
        CHANNELS 3 Zrotation Xrotation Yrotation
        JOINT RightToe
        {
          OFFSET 0.000000 0.000000 0.128119
          CHANNELS 3 Zrotation Xrotation Yrotation
          End Site
          {
            OFFSET 0 0.02 0
          }
        }
      }
    }
  }
}
MOTION
Frames: 8
Frame Time: 0.033366667
0.000000 0.798975 0.000000 1.885044 4.611986 -0.075916 -0.000000 -0.000000 0.000000 -21.532175 37.683144 5.973465 -0.000000 0.000000 0.000000 0.000000 -0.000000 0.000000 -0.000000 0.000000 0.000000 -79.873109 -18.265419 -30.345492 10.712613 0.229739 -3.095775 -16.781051 2.626502 0.691239 -0.000000 0.000000 0.000000 92.771409 18.820927 62.946396 359.763224 -23.970558 -381.732992 -70.960926 59.611634 133.873893 0.000000 0.000000 -0.000000 3.328422 11.479110 -0.391477 -10.617201 4.151695 -1.310490 -44.656799 22.228163 104.198729 0.000000 0.000000 -0.000000 13.444007 1.513612 0.341592 -62.582944 16.255674 3.754767 2.484355 51.543406 61.540576 -0.000000 0.000000 0.000000
0.000000 0.801026 0.000000 1.618064 5.050680 -0.071368 0.000000 0.000000 -0.000000 -21.461122 38.939990 6.222588 0.000000 0.000000 -0.000000 0.000000 0.000000 0.000000 -0.000000 0.000000 0.000000 -78.662605 -18.254287 -32.893185 11.857418 0.404323 -3.451566 -16.957984 3.006444 -0.111235 0.000000 0.000000 -0.000000 88.435956 15.417778 66.390283 360.786506 -19.557567 -378.678252 -62.600172 51.783583 123.436459 0.000000 0.000000 -0.000000 0.704003 9.675011 -0.165841 -9.403067 3.472624 -1.004737 -37.934103 19.753333 103.359418 -0.000000 0.000000 -0.000000 16.379705 4.939525 -0.053698 -54.023433 12.587572 -0.635603 3.261196 25.122935 72.215381 0.000000 0.000000 0.000000
0.000000 0.804032 0.000000 1.202961 5.162163 -0.054230 -0.000000 0.000000 -0.000000 -21.043318 40.569188 6.552485 0.000000 -0.000000 -0.000000 0.000000 -0.000000 0.000000 -0.000000 0.000000 -0.000000 -76.348521 -19.385084 -35.212376 13.579998 0.807047 -4.371728 -17.286358 2.442670 -0.162789 0.000000 0.000000 -0.000000 83.527884 11.143426 69.970003 364.005881 -15.775595 -374.523945 -60.969247 43.656411 117.502869 0.000000 0.000000 -0.000000 -0.472513 5.133763 -0.054048 -12.064282 4.884913 -0.607277 -30.290948 19.453989 103.177543 0.000000 0.000000 0.000000 18.945261 7.994854 -0.560769 -46.068844 6.983590 -3.683949 9.373918 5.458067 73.120934 -0.000000 0.000000 0.000000
0.000000 0.808157 0.000000 0.351106 5.551671 -0.017024 -0.000000 -0.000000 -0.000000 -19.540036 41.609929 6.517233 0.000000 -0.000000 0.000000 -0.000000 0.000000 -0.000000 0.000000 0.000000 -0.000000 -73.359927 -21.278644 -36.943707 17.408324 0.013369 -4.106320 -17.279697 2.904539 -1.220085 0.000000 0.000000 0.000000 79.329592 7.208756 72.593589 366.884226 -12.948792 -370.845000 -59.592930 38.832124 110.898539 -0.000000 0.000000 -0.000000 -2.177763 1.083586 -0.088355 -12.846629 6.470950 0.085776 -25.433593 21.306492 100.840786 -0.000000 0.000000 -0.000000 21.943403 9.930399 -0.887553 -38.083582 2.363870 -4.774202 4.551261 0.821687 69.965168 0.000000 0.000000 0.000000
0.000000 0.811243 0.000000 -1.130062 6.265712 0.061854 0.000000 -0.000000 -0.000000 -17.774974 41.818910 6.433383 -0.000000 0.000000 0.000000 -0.000000 0.000000 0.000000 0.000000 0.000000 -0.000000 -69.825884 -23.760725 -37.686352 21.667147 -0.640524 -3.989516 -8.426505 2.346471 -2.749310 0.000000 0.000000 -0.000000 76.818718 4.013194 73.787249 368.822475 -11.743955 -369.034568 -59.471070 36.135528 108.683824 0.000000 0.000000 0.000000 -4.399971 -0.995854 -0.288987 -10.827476 7.361873 0.560502 -23.199693 22.247600 98.957669 0.000000 0.000000 0.000000 26.136858 10.696619 -0.931322 -30.937617 -0.746983 -4.535767 -2.236651 -1.915856 65.663229 0.000000 0.000000 -0.000000
0.000000 0.812182 0.000000 -2.973153 6.975268 0.181242 0.000000 0.000000 -0.000000 -15.239769 41.587375 6.170041 0.000000 0.000000 0.000000 -0.000000 0.000000 -0.000000 0.000000 0.000000 -0.000000 -67.372223 -26.629947 -36.783333 25.387904 -1.202375 -4.540249 9.210258 0.450562 -3.786144 -0.000000 0.000000 0.000000 75.029468 1.173001 73.597873 368.065583 -12.091172 -370.458921 -52.932791 36.994886 105.141506 0.000000 0.000000 -0.000000 -5.287792 -2.032445 -0.469182 -10.070955 7.865997 0.836558 -21.781346 23.089093 97.969559 0.000000 0.000000 -0.000000 29.059851 10.350392 -0.609553 -21.240186 -3.009761 -3.008792 -7.390938 -9.684028 63.338815 0.000000 0.000000 -0.000000
0.000000 0.805245 0.000000 -4.578467 7.632676 0.305575 -0.000000 0.000000 -0.000000 -13.142574 41.187698 5.963611 -0.000000 0.000000 0.000000 -0.000000 0.000000 -0.000000 0.000000 0.000000 0.000000 -64.445868 -29.948945 -34.930784 27.889245 -2.028878 -4.455006 20.426263 -1.240836 -3.605143 0.000000 0.000000 -0.000000 72.959709 -2.481994 72.827029 368.451708 -12.526325 -371.634243 -49.299267 35.986169 103.655266 0.000000 0.000000 -0.000000 -5.356390 -2.925604 -0.611564 -11.462408 7.928144 1.027469 -21.431170 25.601165 98.167660 -0.000000 0.000000 0.000000 31.860840 8.788835 0.022090 -14.147186 -3.764653 -1.530245 -10.505721 -16.841227 63.501704 0.000000 0.000000 -0.000000
0.000000 0.797379 0.000000 -5.598196 7.847037 0.384260 0.000000 0.000000 0.000000 -11.950764 41.552892 6.023981 -0.000000 0.000000 0.000000 0.000000 -0.000000 -0.000000 -0.000000 0.000000 0.000000 -61.529597 -33.003710 -33.525965 27.938069 -2.413676 -4.203544 21.303845 -1.443395 -5.525057 -0.000000 0.000000 -0.000000 71.657104 -5.804002 71.881594 368.274381 -12.090256 -372.164539 -42.806111 36.160345 99.051581 -0.000000 0.000000 0.000000 -6.466861 -4.260557 -0.893443 -12.779389 7.739202 1.306290 -20.924079 28.648065 99.426434 -0.000000 0.000000 -0.000000 34.356261 5.947920 0.874653 -12.891383 -2.106893 -1.183164 -9.572890 -21.456164 64.281761 -0.000000 0.000000 0.000000
